<svg xmlns="http://www.w3.org/2000/svg" width="24" height="24" viewBox="0 0 24 24">
  <g fill="none" fill-rule="evenodd">
    <rect width="9" height="15.992" x="9" y="5" fill="#FFF"/>
    <path fill="#3B559F" d="M18.5663071,3 L5.4243679,3 C4.08550167,3 3.00008869,4.08536911 3.00008869,5.42427874 L3.00008869,18.5663033 C3.00008869,19.9052124 4.0854578,20.9905815 5.4243679,20.9905815 L11.9059086,20.9905815 L11.916955,14.5617208 L10.2467403,14.5617208 C10.0296831,14.5617208 9.85351181,14.3862095 9.85267639,14.1691532 L9.84466648,12.0968647 C9.84383011,11.8786211 10.0205288,11.7012606 10.2387733,11.7012606 L11.9059525,11.7012606 L11.9059525,9.69890404 C11.9059525,7.37518835 13.3251352,6.10990715 15.3980417,6.10990715 L17.0990181,6.10990715 C17.3166466,6.10990715 17.4931259,6.28634214 17.4931259,6.50401497 L17.4931259,8.25137901 C17.4931259,8.46896362 17.3167801,8.64535427 17.0992393,8.64548588 L16.0553703,8.64597034 C14.9280605,8.64597034 14.7097721,9.18165779 14.7097721,9.96780396 L14.7097721,11.7013054 L17.1868629,11.7013054 C17.4228878,11.7013054 17.6060123,11.907403 17.5781975,12.1417999 L17.3325787,14.2140875 C17.3090782,14.4123964 17.1409168,14.5618086 16.941246,14.5618086 L14.7208195,14.5618086 L14.7097721,20.9906693 L18.5663929,20.9906693 C19.9052582,20.9906693 20.9906273,19.9053001 20.9906273,18.5664349 L20.9906273,5.42427874 C20.9905853,4.08536911 19.9052162,3 18.5663071,3 Z"/>
  </g>
</svg>
