<svg xmlns="http://www.w3.org/2000/svg" width="24" height="24" viewBox="0 0 24 24">
  <g fill="none" fill-rule="evenodd" transform="translate(3 3)">
    <rect width="18" height="18" fill="#0077B7" rx="2"/>
    <path fill="#FFF" d="M3.07323456,9.0515728 C3.07323456,9.3134346 2.86097336,9.5256958 2.59911251,9.5256958 L0.580884933,9.5256958 C0.319023609,9.5256958 0.106762409,9.3134346 0.106762409,9.0515728 L0.106762409,0.591246605 C0.106762409,0.329384804 0.319023609,0.117123604 0.580884933,0.117123604 L2.59911251,0.117123604 C2.86097336,0.117123604 3.07323456,0.329384804 3.07323456,0.591246605 L3.07323456,9.0515728 Z" transform="translate(2.5 6.5)"/>
    <path fill="#FFF" d="M2.09005928,4.31959534 C1.03110981,4.31959534 0.172729492,3.46116781 0.172729492,2.40226555 C0.172729492,1.34336329 1.03115749,0.48493576 2.09005928,0.48493576 C3.14896107,0.48493576 4.00738907,1.34336376 4.00738907,2.40226555 C4.00738907,3.46116734 3.14900875,4.31959534 2.09005928,4.31959534 Z" transform="translate(2 1.5)"/>
    <path fill="#FFF" d="M9.6204567,9.58973503 C9.6204567,9.83047485 9.42526627,10.0256672 9.18452454,10.0256672 L7.0188179,10.0256672 C6.77807999,10.0256672 6.58288574,9.83047485 6.58288574,9.58973503 L6.58288574,5.62136269 C6.58288574,5.02936935 6.75653458,3.02721977 5.03581142,3.02721977 C3.70109177,3.02721977 3.43036652,4.39763069 3.37600517,5.01263142 L3.37600517,9.58973503 C3.37600517,9.83047485 3.18085861,10.0256672 2.94007301,10.0256672 L0.845464706,10.0256672 C0.604725838,10.0256672 0.409532547,9.83047485 0.409532547,9.58973503 L0.409532547,1.05302906 C0.409532547,0.812290192 0.604725838,0.617095947 0.845464706,0.617095947 L2.94007301,0.617095947 C3.18081093,0.617095947 3.37600517,0.812290192 3.37600517,1.05302906 L3.37600517,1.79113388 C3.87092018,1.04840851 4.60643196,0.475132942 6.17246056,0.475132942 C9.64030838,0.475132942 9.6204567,3.71497059 9.6204567,5.49509907 L9.6204567,9.58973503 L9.6204567,9.58973503 Z" transform="translate(6.5 6)"/>
  </g>
</svg>
